<!-- Exported by Character Map UWP -->
<svg height="100%" viewBox="32 -216 288 259" width="100%" xmlns="http://www.w3.org/2000/svg" xmlns:xlink="http://www.w3.org/1999/xlink">
  <path d="M32,-134.125C32,-141.625 32.9792,-148.854 34.9375,-155.813C36.8958,-162.771 39.625,-169.25 43.125,-175.25C46.625,-181.25 50.875,-186.75 55.875,-191.75C60.875,-196.75 66.375,-201 72.375,-204.5C78.375,-208 84.8542,-210.729 91.8125,-212.688C98.7708,-214.646 106,-215.625 113.5,-215.625C119.917,-215.625 125.958,-214.979 131.625,-213.688C137.292,-212.396 142.646,-210.542 147.688,-208.125C152.729,-205.708 157.563,-202.729 162.188,-199.188C166.813,-195.646 171.333,-191.625 175.75,-187.125C180.167,-191.625 184.688,-195.646 189.313,-199.188C193.938,-202.729 198.771,-205.729 203.813,-208.188C208.854,-210.646 214.208,-212.5 219.875,-213.75C225.542,-215 231.583,-215.625 238,-215.625C245.5,-215.625 252.708,-214.646 259.625,-212.688C266.542,-210.729 273.021,-207.979 279.063,-204.438C285.104,-200.896 290.604,-196.646 295.563,-191.688C300.521,-186.729 304.771,-181.229 308.313,-175.188C311.854,-169.146 314.604,-162.667 316.563,-155.75C318.521,-148.833 319.5,-141.625 319.5,-134.125C319.5,-123.042 317.479,-112.625 313.438,-102.875C309.396,-93.125 303.458,-84.3333 295.625,-76.5L175.75,43.375L55.875,-76.5C48.0417,-84.3333 42.1042,-93.125 38.0625,-102.875C34.0208,-112.625 32,-123.042 32,-134.125Z" fill="#000000" fill-opacity="1">
  </path>
  <path d="M238,-197.625C246.75,-197.625 254.979,-195.958 262.688,-192.625C270.396,-189.292 277.125,-184.75 282.875,-179C288.625,-173.25 293.167,-166.521 296.5,-158.813C299.833,-151.104 301.5,-142.875 301.5,-134.125C301.5,-125.625 299.896,-117.521 296.688,-109.813C293.479,-102.104 288.875,-95.25 282.875,-89.25L175.75,18L68.625,-89.25C62.625,-95.25 58.0208,-102.104 54.8125,-109.813C51.6042,-117.521 50,-125.625 50,-134.125C50,-142.875 51.6667,-151.104 55,-158.813C58.3333,-166.521 62.875,-173.25 68.625,-179C74.375,-184.75 81.1042,-189.292 88.8125,-192.625C96.5208,-195.958 104.75,-197.625 113.5,-197.625C120.333,-197.625 126.437,-196.771 131.813,-195.063C137.188,-193.354 142.146,-191.042 146.688,-188.125C151.229,-185.208 155.542,-181.813 159.625,-177.938C163.708,-174.063 167.875,-169.917 172.125,-165.5L175.75,-161.75L179.75,-165.875C184,-170.208 188.146,-174.313 192.188,-178.188C196.229,-182.063 200.5,-185.438 205,-188.313C209.5,-191.188 214.417,-193.458 219.75,-195.125C225.083,-196.792 231.167,-197.625 238,-197.625Z" fill="#886CE4" fill-opacity="1">
  </path>
  <path d="M152.25,-53.875C148.5,-53.875 145.292,-55.2083 142.625,-57.875L97.75,-102.75C93.9167,-106.583 90.9792,-110.958 88.9375,-115.875C86.8958,-120.792 85.875,-125.958 85.875,-131.375L85.875,-148.25C85.875,-150.083 86.2292,-151.833 86.9375,-153.5C87.6458,-155.167 88.6042,-156.604 89.8125,-157.813C91.0208,-159.021 92.4375,-159.979 94.0625,-160.688C95.6875,-161.396 97.4583,-161.75 99.375,-161.75C101.208,-161.75 102.938,-161.396 104.563,-160.688C106.188,-159.979 107.625,-159 108.875,-157.75C110.125,-156.5 111.104,-155.063 111.813,-153.438C112.521,-151.813 112.875,-150.083 112.875,-148.25L112.875,-131.375C112.875,-129.625 113.208,-127.917 113.875,-126.25C114.542,-124.583 115.5,-123.125 116.75,-121.875L161.75,-76.875C163,-75.625 163.958,-74.1667 164.625,-72.5C165.292,-70.8333 165.625,-69.125 165.625,-67.375C165.625,-65.5417 165.271,-63.8125 164.563,-62.1875C163.854,-60.5625 162.896,-59.125 161.688,-57.875C160.479,-56.625 159.063,-55.6458 157.438,-54.9375C155.813,-54.2292 154.083,-53.875 152.25,-53.875Z" fill="#9C89E9" fill-opacity="1">
  </path>
</svg>